<svg xmlns="http://www.w3.org/2000/svg" xmlns:xlink="http://www.w3.org/1999/xlink" width="100" zoomAndPan="magnify" viewBox="0 0 75 37.5" height="50" preserveAspectRatio="xMidYMid meet" version="1.0"><defs><g/></defs><g fill="#ffffff" fill-opacity="1"><g transform="translate(-0.539589, 27.858887)"><g><path d="M 1.90625 -2.328125 C 1.90625 -3.234375 2.144531 -3.914062 2.625 -4.375 C 3.113281 -4.84375 3.820312 -5.078125 4.75 -5.078125 C 5.65625 -5.078125 6.351562 -4.835938 6.84375 -4.359375 C 7.332031 -3.890625 7.578125 -3.210938 7.578125 -2.328125 C 7.578125 -1.472656 7.328125 -0.796875 6.828125 -0.296875 C 6.335938 0.191406 5.644531 0.4375 4.75 0.4375 C 3.84375 0.4375 3.140625 0.195312 2.640625 -0.28125 C 2.148438 -0.757812 1.90625 -1.441406 1.90625 -2.328125 Z M 1.90625 -2.328125 "/></g></g></g><g fill="#ffffff" fill-opacity="1"><g transform="translate(8.936681, 27.858887)"><g><path d="M 17.515625 0 L 15.796875 -5.65625 L 7.140625 -5.65625 L 5.421875 0 L 0 0 L 8.375 -23.828125 L 14.53125 -23.828125 L 22.9375 0 Z M 14.59375 -9.875 C 13 -14.988281 12.101562 -17.878906 11.90625 -18.546875 C 11.707031 -19.222656 11.566406 -19.753906 11.484375 -20.140625 C 11.117188 -18.753906 10.09375 -15.332031 8.40625 -9.875 Z M 14.59375 -9.875 "/></g></g></g><g fill="#ffffff" fill-opacity="1"><g transform="translate(31.864761, 27.858887)"><g><path d="M 19.359375 0 L 14.40625 0 L 14.40625 -10.609375 C 14.40625 -11.910156 14.171875 -12.890625 13.703125 -13.546875 C 13.234375 -14.203125 12.492188 -14.53125 11.484375 -14.53125 C 10.097656 -14.53125 9.09375 -14.066406 8.46875 -13.140625 C 7.851562 -12.210938 7.546875 -10.679688 7.546875 -8.546875 L 7.546875 0 L 2.59375 0 L 2.59375 -18.15625 L 6.375 -18.15625 L 7.046875 -15.828125 L 7.328125 -15.828125 C 7.878906 -16.703125 8.640625 -17.363281 9.609375 -17.8125 C 10.578125 -18.257812 11.675781 -18.484375 12.90625 -18.484375 C 15.019531 -18.484375 16.625 -17.910156 17.71875 -16.765625 C 18.8125 -15.628906 19.359375 -13.984375 19.359375 -11.828125 Z M 19.359375 0 "/></g></g></g><g fill="#ffffff" fill-opacity="1"><g transform="translate(53.705618, 27.858887)"><g><path d="M 19.359375 0 L 14.40625 0 L 14.40625 -10.609375 C 14.40625 -13.222656 13.429688 -14.53125 11.484375 -14.53125 C 10.097656 -14.53125 9.09375 -14.054688 8.46875 -13.109375 C 7.851562 -12.171875 7.546875 -10.648438 7.546875 -8.546875 L 7.546875 0 L 2.59375 0 L 2.59375 -25.265625 L 7.546875 -25.265625 L 7.546875 -20.109375 C 7.546875 -19.710938 7.507812 -18.773438 7.4375 -17.296875 L 7.328125 -15.828125 L 7.578125 -15.828125 C 8.679688 -17.597656 10.4375 -18.484375 12.84375 -18.484375 C 14.976562 -18.484375 16.597656 -17.910156 17.703125 -16.765625 C 18.804688 -15.617188 19.359375 -13.972656 19.359375 -11.828125 Z M 19.359375 0 "/></g></g></g></svg>