<svg xmlns="http://www.w3.org/2000/svg" xmlns:xlink="http://www.w3.org/1999/xlink" width="150" zoomAndPan="magnify" viewBox="0 0 810 809.999993" height="120" preserveAspectRatio="xMidYMid meet" version="1.0"><defs><g/></defs><g fill="#ffffff" fill-opacity="1"><g transform="translate(0.0000035, 469.53451)"><g><path d="M 9.703125 -11.859375 C 9.703125 -16.503906 10.945312 -20.015625 13.4375 -22.390625 C 15.925781 -24.773438 19.550781 -25.96875 24.3125 -25.96875 C 28.894531 -25.96875 32.445312 -24.75 34.96875 -22.3125 C 37.488281 -19.882812 38.75 -16.398438 38.75 -11.859375 C 38.75 -7.492188 37.472656 -4.050781 34.921875 -1.53125 C 32.378906 0.976562 28.84375 2.234375 24.3125 2.234375 C 19.664062 2.234375 16.066406 1.003906 13.515625 -1.453125 C 10.972656 -3.910156 9.703125 -7.378906 9.703125 -11.859375 Z M 9.703125 -11.859375 "/></g></g><g transform="translate(48.451937, 469.53451)"><g><path d="M 40.984375 -64.21875 L 49.453125 -64.21875 C 57.359375 -64.21875 63.273438 -65.78125 67.203125 -68.90625 C 71.128906 -72.03125 73.09375 -76.578125 73.09375 -82.546875 C 73.09375 -88.578125 71.445312 -93.03125 68.15625 -95.90625 C 64.863281 -98.78125 59.707031 -100.21875 52.6875 -100.21875 L 40.984375 -100.21875 Z M 99.0625 -83.453125 C 99.0625 -70.398438 94.976562 -60.414062 86.8125 -53.5 C 78.65625 -46.59375 67.054688 -43.140625 52.015625 -43.140625 L 40.984375 -43.140625 L 40.984375 0 L 15.265625 0 L 15.265625 -121.296875 L 54.015625 -121.296875 C 68.722656 -121.296875 79.90625 -118.128906 87.5625 -111.796875 C 95.226562 -105.460938 99.0625 -96.015625 99.0625 -83.453125 Z M 99.0625 -83.453125 "/></g></g><g transform="translate(155.145749, 469.53451)"><g><path d="M 114.65625 0 L 89.015625 0 L 89.015625 -52.34375 L 40.984375 -52.34375 L 40.984375 0 L 15.265625 0 L 15.265625 -121.296875 L 40.984375 -121.296875 L 40.984375 -73.75 L 89.015625 -73.75 L 89.015625 -121.296875 L 114.65625 -121.296875 Z M 114.65625 0 "/></g></g><g transform="translate(285.152906, 469.53451)"><g><path d="M 113.984375 -121.296875 L 113.984375 -42.8125 C 113.984375 -33.851562 111.976562 -26 107.96875 -19.25 C 103.957031 -12.5 98.164062 -7.328125 90.59375 -3.734375 C 83.019531 -0.140625 74.0625 1.65625 63.71875 1.65625 C 48.113281 1.65625 36 -2.335938 27.375 -10.328125 C 18.75 -18.316406 14.4375 -29.253906 14.4375 -43.140625 L 14.4375 -121.296875 L 40.078125 -121.296875 L 40.078125 -47.046875 C 40.078125 -37.691406 41.957031 -30.828125 45.71875 -26.453125 C 49.476562 -22.085938 55.695312 -19.90625 64.375 -19.90625 C 72.78125 -19.90625 78.878906 -22.101562 82.671875 -26.5 C 86.460938 -30.90625 88.359375 -37.804688 88.359375 -47.203125 L 88.359375 -121.296875 Z M 113.984375 -121.296875 "/></g></g><g transform="translate(413.583716, 469.53451)"><g><path d="M 125.359375 -60.8125 C 125.359375 -40.738281 120.378906 -25.304688 110.421875 -14.515625 C 100.460938 -3.734375 86.191406 1.65625 67.609375 1.65625 C 49.023438 1.65625 34.753906 -3.734375 24.796875 -14.515625 C 14.847656 -25.304688 9.875 -40.796875 9.875 -60.984375 C 9.875 -81.171875 14.863281 -96.585938 24.84375 -107.234375 C 34.832031 -117.878906 49.144531 -123.203125 67.78125 -123.203125 C 86.414062 -123.203125 100.671875 -117.835938 110.546875 -107.109375 C 120.421875 -96.378906 125.359375 -80.945312 125.359375 -60.8125 Z M 36.828125 -60.8125 C 36.828125 -47.257812 39.398438 -37.050781 44.546875 -30.1875 C 49.691406 -23.332031 57.378906 -19.90625 67.609375 -19.90625 C 88.128906 -19.90625 98.390625 -33.539062 98.390625 -60.8125 C 98.390625 -88.132812 88.1875 -101.796875 67.78125 -101.796875 C 57.550781 -101.796875 49.832031 -98.351562 44.625 -91.46875 C 39.425781 -84.582031 36.828125 -74.363281 36.828125 -60.8125 Z M 36.828125 -60.8125 "/></g></g><g transform="translate(548.817708, 469.53451)"><g><path d="M 122.859375 0 L 90.1875 0 L 37.421875 -91.75 L 36.671875 -91.75 C 37.722656 -75.550781 38.25 -63.992188 38.25 -57.078125 L 38.25 0 L 15.265625 0 L 15.265625 -121.296875 L 47.703125 -121.296875 L 100.390625 -30.453125 L 100.96875 -30.453125 C 100.132812 -46.210938 99.71875 -57.351562 99.71875 -63.875 L 99.71875 -121.296875 L 122.859375 -121.296875 Z M 122.859375 0 "/></g></g><g transform="translate(686.955497, 469.53451)"><g><path d="M 61.3125 -68.109375 L 109.421875 -68.109375 L 109.421875 -5.234375 C 101.628906 -2.679688 94.289062 -0.894531 87.40625 0.125 C 80.519531 1.144531 73.476562 1.65625 66.28125 1.65625 C 47.976562 1.65625 34 -3.71875 24.34375 -14.46875 C 14.695312 -25.226562 9.875 -40.675781 9.875 -60.8125 C 9.875 -80.394531 15.472656 -95.660156 26.671875 -106.609375 C 37.867188 -117.554688 53.394531 -123.03125 73.25 -123.03125 C 85.695312 -123.03125 97.703125 -120.539062 109.265625 -115.5625 L 100.71875 -94.984375 C 91.863281 -99.410156 82.65625 -101.625 73.09375 -101.625 C 61.976562 -101.625 53.070312 -97.890625 46.375 -90.421875 C 39.6875 -82.960938 36.34375 -72.925781 36.34375 -60.3125 C 36.34375 -47.144531 39.035156 -37.09375 44.421875 -30.15625 C 49.816406 -23.21875 57.660156 -19.75 67.953125 -19.75 C 73.316406 -19.75 78.765625 -20.300781 84.296875 -21.40625 L 84.296875 -46.703125 L 61.3125 -46.703125 Z M 61.3125 -68.109375 "/></g></g></g></svg>